<mxfile host="app.diagrams.net" modified="2022-09-27T09:38:16.516Z" agent="5.0 (Windows NT 10.0; Win64; x64) AppleWebKit/537.36 (KHTML, like Gecko) Chrome/104.0.5112.114 YaBrowser/22.9.1.1095 Yowser/2.5 Safari/537.36" etag="OjTvnOtkviUU8GYoGInF" version="20.3.6" type="github">
  <diagram id="K-E8zHpM3q9iSFGX_kr4" name="Страница 1">
    <mxGraphModel dx="1309" dy="1913" grid="1" gridSize="10" guides="1" tooltips="1" connect="1" arrows="1" fold="1" page="1" pageScale="1" pageWidth="827" pageHeight="1169" math="0" shadow="0">
      <root>
        <mxCell id="0" />
        <mxCell id="1" parent="0" />
        <mxCell id="BaSR1fLrFSYMw4SIueZq-1" value="RETAILCRM" style="rounded=0;whiteSpace=wrap;html=1;" parent="1" vertex="1">
          <mxGeometry x="350" y="210" width="120" height="220" as="geometry" />
        </mxCell>
        <mxCell id="BaSR1fLrFSYMw4SIueZq-2" value="&lt;font style=&quot;font-size: 12px;&quot;&gt;ЗАПРОС О НАЛИЧИИ ТОВАРА&lt;/font&gt;" style="shape=flexArrow;endArrow=classic;html=1;rounded=0;entryX=-0.025;entryY=0.364;entryDx=0;entryDy=0;entryPerimeter=0;" parent="1" target="BaSR1fLrFSYMw4SIueZq-1" edge="1">
          <mxGeometry width="50" height="50" relative="1" as="geometry">
            <mxPoint x="110" y="290" as="sourcePoint" />
            <mxPoint x="250" y="240" as="targetPoint" />
            <Array as="points">
              <mxPoint x="290" y="290" />
            </Array>
          </mxGeometry>
        </mxCell>
        <mxCell id="BaSR1fLrFSYMw4SIueZq-3" value="&lt;font style=&quot;font-size: 12px;&quot;&gt;ЗАПРОС О НАЛИЧИИ ТОВАРА&lt;/font&gt;" style="shape=flexArrow;endArrow=classic;html=1;rounded=0;" parent="1" edge="1">
          <mxGeometry width="50" height="50" relative="1" as="geometry">
            <mxPoint x="470" y="240" as="sourcePoint" />
            <mxPoint x="670" y="240" as="targetPoint" />
            <Array as="points">
              <mxPoint x="650" y="240" />
            </Array>
          </mxGeometry>
        </mxCell>
        <mxCell id="BaSR1fLrFSYMw4SIueZq-4" value="1С" style="whiteSpace=wrap;html=1;aspect=fixed;fontSize=18;" parent="1" vertex="1">
          <mxGeometry x="670" y="210" width="100" height="100" as="geometry" />
        </mxCell>
        <mxCell id="BaSR1fLrFSYMw4SIueZq-7" value="" style="curved=1;endArrow=classic;html=1;rounded=0;fontSize=18;entryX=0.442;entryY=-0.018;entryDx=0;entryDy=0;entryPerimeter=0;startArrow=none;" parent="1" source="BaSR1fLrFSYMw4SIueZq-8" target="BaSR1fLrFSYMw4SIueZq-1" edge="1">
          <mxGeometry width="50" height="50" relative="1" as="geometry">
            <mxPoint x="700" y="210" as="sourcePoint" />
            <mxPoint x="450" y="140" as="targetPoint" />
            <Array as="points" />
          </mxGeometry>
        </mxCell>
        <mxCell id="BaSR1fLrFSYMw4SIueZq-11" value="&lt;font style=&quot;font-size: 12px;&quot;&gt;ОТВЕТ О НАЛИЧИИ ТОВАРА&lt;br&gt;&lt;/font&gt;" style="shape=flexArrow;endArrow=classic;html=1;rounded=0;entryX=-0.025;entryY=0.364;entryDx=0;entryDy=0;entryPerimeter=0;" parent="1" edge="1">
          <mxGeometry width="50" height="50" relative="1" as="geometry">
            <mxPoint x="470" y="340" as="sourcePoint" />
            <mxPoint x="707" y="340.0799999999999" as="targetPoint" />
            <Array as="points">
              <mxPoint x="650" y="340" />
            </Array>
          </mxGeometry>
        </mxCell>
        <mxCell id="BaSR1fLrFSYMw4SIueZq-13" value="СБЕРБАНК" style="whiteSpace=wrap;html=1;aspect=fixed;fontSize=12;" parent="1" vertex="1">
          <mxGeometry x="370" y="510" width="80" height="80" as="geometry" />
        </mxCell>
        <mxCell id="BaSR1fLrFSYMw4SIueZq-15" value="&lt;font style=&quot;font-size: 12px;&quot;&gt;ЗАПРОС О ПОКУПКЕ ТОВАРА&lt;/font&gt;" style="shape=flexArrow;endArrow=classic;html=1;rounded=0;entryX=-0.025;entryY=0.364;entryDx=0;entryDy=0;entryPerimeter=0;" parent="1" edge="1">
          <mxGeometry width="50" height="50" relative="1" as="geometry">
            <mxPoint x="113" y="319.52" as="sourcePoint" />
            <mxPoint x="350" y="319.5999999999999" as="targetPoint" />
            <Array as="points">
              <mxPoint x="293" y="319.52" />
            </Array>
          </mxGeometry>
        </mxCell>
        <mxCell id="BaSR1fLrFSYMw4SIueZq-16" value="&lt;span style=&quot;font-size: 12px;&quot;&gt;ЗАПРОС ОБ ИЗМЕНЕНИИ БАЗЫ ТОВАРОВ&lt;/span&gt;" style="shape=flexArrow;endArrow=classic;html=1;rounded=0;" parent="1" edge="1">
          <mxGeometry width="50" height="50" relative="1" as="geometry">
            <mxPoint x="470" y="270" as="sourcePoint" />
            <mxPoint x="670" y="270" as="targetPoint" />
            <Array as="points">
              <mxPoint x="650" y="270" />
            </Array>
          </mxGeometry>
        </mxCell>
        <mxCell id="BaSR1fLrFSYMw4SIueZq-20" value="" style="curved=1;endArrow=classic;html=1;rounded=0;fontSize=12;entryX=0.5;entryY=0;entryDx=0;entryDy=0;exitX=0.75;exitY=1;exitDx=0;exitDy=0;" parent="1" source="BaSR1fLrFSYMw4SIueZq-1" target="BaSR1fLrFSYMw4SIueZq-13" edge="1">
          <mxGeometry width="50" height="50" relative="1" as="geometry">
            <mxPoint x="410" y="480" as="sourcePoint" />
            <mxPoint x="460" y="430" as="targetPoint" />
            <Array as="points">
              <mxPoint x="460" y="480" />
              <mxPoint x="410" y="430" />
            </Array>
          </mxGeometry>
        </mxCell>
        <mxCell id="BaSR1fLrFSYMw4SIueZq-21" value="&lt;span style=&quot;font-size: 12px;&quot;&gt;ЭКВАЙРИНГ&lt;/span&gt;" style="text;html=1;strokeColor=none;fillColor=none;align=center;verticalAlign=middle;whiteSpace=wrap;rounded=0;fontSize=18;" parent="1" vertex="1">
          <mxGeometry x="360" y="470" width="160" height="30" as="geometry" />
        </mxCell>
        <mxCell id="BaSR1fLrFSYMw4SIueZq-22" value="" style="curved=1;endArrow=classic;html=1;rounded=0;fontSize=12;entryX=0.25;entryY=1;entryDx=0;entryDy=0;" parent="1" source="BaSR1fLrFSYMw4SIueZq-13" target="BaSR1fLrFSYMw4SIueZq-1" edge="1">
          <mxGeometry width="50" height="50" relative="1" as="geometry">
            <mxPoint x="380" y="505" as="sourcePoint" />
            <mxPoint x="330" y="420" as="targetPoint" />
            <Array as="points">
              <mxPoint x="370" y="555" />
              <mxPoint x="320" y="505" />
            </Array>
          </mxGeometry>
        </mxCell>
        <mxCell id="BaSR1fLrFSYMw4SIueZq-23" value="&lt;span style=&quot;font-size: 12px;&quot;&gt;ИНФОРМАЦИЯ&lt;br&gt;ОБ&lt;br&gt;ОПЛАТЕ&lt;br&gt;&lt;/span&gt;" style="text;html=1;strokeColor=none;fillColor=none;align=center;verticalAlign=middle;whiteSpace=wrap;rounded=0;fontSize=18;" parent="1" vertex="1">
          <mxGeometry x="230" y="500" width="160" height="30" as="geometry" />
        </mxCell>
        <mxCell id="BaSR1fLrFSYMw4SIueZq-24" value="СОТРУДНИК" style="whiteSpace=wrap;html=1;aspect=fixed;fontSize=12;" parent="1" vertex="1">
          <mxGeometry x="700" y="400" width="80" height="80" as="geometry" />
        </mxCell>
        <mxCell id="BaSR1fLrFSYMw4SIueZq-25" value="&lt;font style=&quot;font-size: 12px;&quot;&gt;ЗАПРОС О ФОРМИРОВАНИИ ЗАКАЗА&lt;br&gt;&lt;/font&gt;" style="shape=flexArrow;endArrow=classic;html=1;rounded=0;entryX=0;entryY=0.25;entryDx=0;entryDy=0;" parent="1" target="BaSR1fLrFSYMw4SIueZq-24" edge="1">
          <mxGeometry width="50" height="50" relative="1" as="geometry">
            <mxPoint x="470" y="420" as="sourcePoint" />
            <mxPoint x="707" y="420.0799999999999" as="targetPoint" />
            <Array as="points">
              <mxPoint x="650" y="420" />
            </Array>
          </mxGeometry>
        </mxCell>
        <mxCell id="BaSR1fLrFSYMw4SIueZq-26" value="ПОЧТА РОССИИ" style="whiteSpace=wrap;html=1;aspect=fixed;fontSize=12;" parent="1" vertex="1">
          <mxGeometry x="600" y="520" width="80" height="80" as="geometry" />
        </mxCell>
        <mxCell id="BaSR1fLrFSYMw4SIueZq-29" value="" style="curved=1;endArrow=classic;html=1;rounded=0;fontSize=12;entryX=1;entryY=0;entryDx=0;entryDy=0;exitX=0.175;exitY=1.063;exitDx=0;exitDy=0;exitPerimeter=0;" parent="1" source="BaSR1fLrFSYMw4SIueZq-24" target="BaSR1fLrFSYMw4SIueZq-26" edge="1">
          <mxGeometry width="50" height="50" relative="1" as="geometry">
            <mxPoint x="720" y="560" as="sourcePoint" />
            <mxPoint x="770" y="510" as="targetPoint" />
            <Array as="points">
              <mxPoint x="720" y="510" />
            </Array>
          </mxGeometry>
        </mxCell>
        <mxCell id="BaSR1fLrFSYMw4SIueZq-31" value="&lt;span style=&quot;font-size: 12px;&quot;&gt;ОТПРАВКА ТОВАРА&lt;br&gt;&lt;/span&gt;" style="text;html=1;strokeColor=none;fillColor=none;align=center;verticalAlign=middle;whiteSpace=wrap;rounded=0;fontSize=18;" parent="1" vertex="1">
          <mxGeometry x="660" y="520" width="160" height="30" as="geometry" />
        </mxCell>
        <mxCell id="BaSR1fLrFSYMw4SIueZq-33" value="" style="curved=1;endArrow=classic;html=1;rounded=0;fontSize=12;entryX=0.933;entryY=1.023;entryDx=0;entryDy=0;entryPerimeter=0;exitX=0;exitY=0;exitDx=0;exitDy=0;" parent="1" source="BaSR1fLrFSYMw4SIueZq-26" target="BaSR1fLrFSYMw4SIueZq-1" edge="1">
          <mxGeometry width="50" height="50" relative="1" as="geometry">
            <mxPoint x="720" y="580" as="sourcePoint" />
            <mxPoint x="770" y="530" as="targetPoint" />
            <Array as="points">
              <mxPoint x="550" y="490" />
            </Array>
          </mxGeometry>
        </mxCell>
        <mxCell id="BaSR1fLrFSYMw4SIueZq-34" value="&lt;font style=&quot;font-size: 11px;&quot;&gt;ДАННЫЕ ОБ ОТПРАВКЕ&lt;/font&gt;" style="text;html=1;strokeColor=none;fillColor=none;align=center;verticalAlign=middle;whiteSpace=wrap;rounded=0;fontSize=18;" parent="1" vertex="1">
          <mxGeometry x="480" y="480" width="160" height="30" as="geometry" />
        </mxCell>
        <mxCell id="BaSR1fLrFSYMw4SIueZq-36" value="&lt;font style=&quot;font-size: 12px;&quot;&gt;ИНФОРМАЦИЯ О ЗАКАЗЕ И ТРЕКИНГ&lt;br&gt;&lt;/font&gt;" style="shape=flexArrow;endArrow=classic;html=1;rounded=0;entryX=-0.025;entryY=0.364;entryDx=0;entryDy=0;entryPerimeter=0;" parent="1" edge="1">
          <mxGeometry width="50" height="50" relative="1" as="geometry">
            <mxPoint x="470" y="380" as="sourcePoint" />
            <mxPoint x="707" y="380.0799999999999" as="targetPoint" />
            <Array as="points">
              <mxPoint x="650" y="380" />
            </Array>
          </mxGeometry>
        </mxCell>
        <mxCell id="BaSR1fLrFSYMw4SIueZq-37" value="&lt;font style=&quot;font-size: 12px;&quot;&gt;ЗАПРОС АНАЛИЗА КЛИЕНТОВ&lt;/font&gt;" style="shape=flexArrow;endArrow=classic;html=1;rounded=0;entryX=-0.025;entryY=0.364;entryDx=0;entryDy=0;entryPerimeter=0;" parent="1" edge="1">
          <mxGeometry width="50" height="50" relative="1" as="geometry">
            <mxPoint x="113" y="380" as="sourcePoint" />
            <mxPoint x="350" y="380.0799999999999" as="targetPoint" />
            <Array as="points">
              <mxPoint x="293" y="380" />
            </Array>
          </mxGeometry>
        </mxCell>
        <mxCell id="BaSR1fLrFSYMw4SIueZq-38" value="" style="group" parent="1" vertex="1" connectable="0">
          <mxGeometry x="520" y="160" width="230" height="50" as="geometry" />
        </mxCell>
        <mxCell id="BaSR1fLrFSYMw4SIueZq-8" value="&lt;span style=&quot;font-size: 12px;&quot;&gt;ИНФОРМАЦИЯ О ПРИСУТСТВИИ&lt;/span&gt;" style="text;html=1;strokeColor=none;fillColor=none;align=center;verticalAlign=middle;whiteSpace=wrap;rounded=0;fontSize=18;" parent="BaSR1fLrFSYMw4SIueZq-38" vertex="1">
          <mxGeometry y="10" width="160" height="30" as="geometry" />
        </mxCell>
        <mxCell id="BaSR1fLrFSYMw4SIueZq-18" value="" style="curved=1;endArrow=none;html=1;rounded=0;fontSize=18;entryX=0.442;entryY=-0.018;entryDx=0;entryDy=0;entryPerimeter=0;" parent="BaSR1fLrFSYMw4SIueZq-38" target="BaSR1fLrFSYMw4SIueZq-8" edge="1">
          <mxGeometry width="50" height="50" relative="1" as="geometry">
            <mxPoint x="180" y="50" as="sourcePoint" />
            <mxPoint x="-116.96000000000004" y="46.039999999999964" as="targetPoint" />
            <Array as="points">
              <mxPoint x="230" y="50" />
              <mxPoint x="180" />
            </Array>
          </mxGeometry>
        </mxCell>
        <mxCell id="BaSR1fLrFSYMw4SIueZq-39" value="" style="group" parent="1" vertex="1" connectable="0">
          <mxGeometry x="480" y="50" width="280" height="160" as="geometry" />
        </mxCell>
        <mxCell id="BaSR1fLrFSYMw4SIueZq-17" value="" style="curved=1;endArrow=classic;html=1;rounded=0;fontSize=18;entryX=0.25;entryY=0;entryDx=0;entryDy=0;" parent="BaSR1fLrFSYMw4SIueZq-39" target="BaSR1fLrFSYMw4SIueZq-1" edge="1">
          <mxGeometry width="50" height="50" relative="1" as="geometry">
            <mxPoint x="230.17084282460135" y="160" as="sourcePoint" />
            <mxPoint x="-99.65831435079726" y="146.66666666666666" as="targetPoint" />
            <Array as="points">
              <mxPoint x="280" y="160" />
              <mxPoint x="189.35079726651477" />
            </Array>
          </mxGeometry>
        </mxCell>
        <mxCell id="BaSR1fLrFSYMw4SIueZq-19" value="&lt;span style=&quot;font-size: 12px;&quot;&gt;ИНФОРМАЦИЮ О ТОВАРЕ&lt;/span&gt;" style="text;html=1;strokeColor=none;fillColor=none;align=center;verticalAlign=middle;whiteSpace=wrap;rounded=0;fontSize=18;" parent="BaSR1fLrFSYMw4SIueZq-39" vertex="1">
          <mxGeometry y="26.666666666666664" width="159.4533029612756" height="40" as="geometry" />
        </mxCell>
        <mxCell id="BaSR1fLrFSYMw4SIueZq-40" value="&lt;span style=&quot;font-size: 12px;&quot;&gt;ЗАПРОС БАЗЫ КЛИЕНТОВ&lt;/span&gt;" style="shape=flexArrow;endArrow=classic;html=1;rounded=0;exitX=1;exitY=0.364;exitDx=0;exitDy=0;exitPerimeter=0;" parent="1" source="BaSR1fLrFSYMw4SIueZq-1" edge="1">
          <mxGeometry width="50" height="50" relative="1" as="geometry">
            <mxPoint x="480" y="290" as="sourcePoint" />
            <mxPoint x="680" y="290" as="targetPoint" />
            <Array as="points">
              <mxPoint x="660" y="290" />
            </Array>
          </mxGeometry>
        </mxCell>
        <mxCell id="BaSR1fLrFSYMw4SIueZq-45" value="" style="curved=1;endArrow=classic;html=1;rounded=0;fontSize=11;entryX=0.25;entryY=0;entryDx=0;entryDy=0;startArrow=none;" parent="1" source="BaSR1fLrFSYMw4SIueZq-46" target="BaSR1fLrFSYMw4SIueZq-1" edge="1">
          <mxGeometry width="50" height="50" relative="1" as="geometry">
            <mxPoint x="720" y="210" as="sourcePoint" />
            <mxPoint x="620" y="170" as="targetPoint" />
            <Array as="points" />
          </mxGeometry>
        </mxCell>
        <mxCell id="BaSR1fLrFSYMw4SIueZq-46" value="БАЗА КЛИЕНТОВ" style="text;html=1;strokeColor=none;fillColor=none;align=center;verticalAlign=middle;whiteSpace=wrap;rounded=0;fontSize=11;" parent="1" vertex="1">
          <mxGeometry x="560" width="60" height="30" as="geometry" />
        </mxCell>
        <mxCell id="BaSR1fLrFSYMw4SIueZq-47" value="" style="curved=1;endArrow=none;html=1;rounded=0;fontSize=11;entryX=0.25;entryY=0;entryDx=0;entryDy=0;" parent="1" target="BaSR1fLrFSYMw4SIueZq-46" edge="1">
          <mxGeometry width="50" height="50" relative="1" as="geometry">
            <mxPoint x="720" y="210" as="sourcePoint" />
            <mxPoint x="380" y="210" as="targetPoint" />
            <Array as="points">
              <mxPoint x="740" y="80" />
              <mxPoint x="720" y="-100" />
            </Array>
          </mxGeometry>
        </mxCell>
        <mxCell id="BaSR1fLrFSYMw4SIueZq-48" value="&lt;font style=&quot;font-size: 12px;&quot;&gt;ИТОГИ АНАЛИЗА КЛИЕНТОВ&lt;br&gt;&lt;/font&gt;" style="shape=flexArrow;endArrow=classic;html=1;rounded=0;entryX=0;entryY=0.25;entryDx=0;entryDy=0;" parent="1" edge="1">
          <mxGeometry width="50" height="50" relative="1" as="geometry">
            <mxPoint x="470" y="360" as="sourcePoint" />
            <mxPoint x="700" y="360" as="targetPoint" />
            <Array as="points">
              <mxPoint x="650" y="360" />
            </Array>
          </mxGeometry>
        </mxCell>
        <mxCell id="BaSR1fLrFSYMw4SIueZq-49" value="&lt;font style=&quot;font-size: 12px;&quot;&gt;ЗАПРОС О РАССЫЛКЕ EMAIL И ТФ&lt;/font&gt;" style="shape=flexArrow;endArrow=classic;html=1;rounded=0;entryX=-0.025;entryY=0.364;entryDx=0;entryDy=0;entryPerimeter=0;" parent="1" edge="1">
          <mxGeometry width="50" height="50" relative="1" as="geometry">
            <mxPoint x="109.99999999999977" y="420" as="sourcePoint" />
            <mxPoint x="347" y="420.0799999999999" as="targetPoint" />
            <Array as="points">
              <mxPoint x="290" y="420" />
            </Array>
          </mxGeometry>
        </mxCell>
        <mxCell id="BaSR1fLrFSYMw4SIueZq-51" value="&lt;font style=&quot;font-size: 12px;&quot;&gt;МОБ. И EMAIL РАССЫЛКА&lt;br&gt;&lt;/font&gt;" style="shape=flexArrow;endArrow=classic;html=1;rounded=0;entryX=0;entryY=0.25;entryDx=0;entryDy=0;" parent="1" edge="1">
          <mxGeometry width="50" height="50" relative="1" as="geometry">
            <mxPoint x="470" y="320" as="sourcePoint" />
            <mxPoint x="700" y="320" as="targetPoint" />
            <Array as="points">
              <mxPoint x="650" y="320" />
            </Array>
          </mxGeometry>
        </mxCell>
        <mxCell id="CIOCGw89Ey7CUrNZuuz2-1" value="САЙТ&lt;br&gt;(КЛИЕНТ&lt;br&gt;ФОРМА)" style="rounded=0;whiteSpace=wrap;html=1;fontSize=11;" vertex="1" parent="1">
          <mxGeometry x="40" y="280" width="70" height="70" as="geometry" />
        </mxCell>
        <mxCell id="CIOCGw89Ey7CUrNZuuz2-2" value="САЙТ&lt;br&gt;(ВЛАДЕЛЕЦ&lt;br&gt;ФОРМА)" style="rounded=0;whiteSpace=wrap;html=1;fontSize=11;" vertex="1" parent="1">
          <mxGeometry x="40" y="360" width="70" height="70" as="geometry" />
        </mxCell>
      </root>
    </mxGraphModel>
  </diagram>
</mxfile>
